HIERARCHY
ROOT Hips
{
	OFFSET 0.000000 0.000000 0.000000
	CHANNELS 6 Xposition Yposition Zposition Zrotation Yrotation Xrotation 
	JOINT LHipJoint
	{
		OFFSET 0.000000 0.000000 0.000000
		CHANNELS 3 Zrotation Yrotation Xrotation
		JOINT LeftUpLeg
		{
			OFFSET 1.363060 -1.794630 0.839290
			CHANNELS 3 Zrotation Yrotation Xrotation
			JOINT LeftLeg
			{
				OFFSET 2.448110 -6.726130 0.000000
				CHANNELS 3 Zrotation Yrotation Xrotation
				JOINT LeftFoot
				{
					OFFSET 2.562200 -7.039590 0.000000
					CHANNELS 3 Zrotation Yrotation Xrotation
					JOINT LeftToeBase
					{
						OFFSET 0.157640 -0.433110 2.322550
						CHANNELS 3 Zrotation Yrotation Xrotation
						End Site
						{
							OFFSET 0.000000 0.000000 0.000000
						}
					}
				}
			}
		}
	}
	JOINT RHipJoint
	{
		OFFSET 0.000000 0.000000 0.000000
		CHANNELS 3 Zrotation Yrotation Xrotation
		JOINT RightUpLeg
		{
			OFFSET -1.305520 -1.794630 0.839290
			CHANNELS 3 Zrotation Yrotation Xrotation
			JOINT RightLeg
			{
				OFFSET -2.542530 -6.985550 0.000000
				CHANNELS 3 Zrotation Yrotation Xrotation
				JOINT RightFoot
				{
					OFFSET -2.568260 -7.056230 0.000000
					CHANNELS 3 Zrotation Yrotation Xrotation
					JOINT RightToeBase
					{
						OFFSET -0.164730 -0.452590 2.363150
						CHANNELS 3 Zrotation Yrotation Xrotation
						End Site
						{
							OFFSET 0.000000 0.000000 0.000000
						}
					}
				}
			}
		}
	}
	JOINT LowerBack
	{
		OFFSET 0.000000 0.000000 0.000000
		CHANNELS 3 Zrotation Yrotation Xrotation
		JOINT Spine
		{
			OFFSET 0.028270 2.035590 -0.193380
			CHANNELS 3 Zrotation Yrotation Xrotation
			JOINT Spine1
			{
				OFFSET 0.056720 2.048850 -0.042750
				CHANNELS 3 Zrotation Yrotation Xrotation
				JOINT Neck
				{
					OFFSET 0.000000 0.000000 0.000000
					CHANNELS 3 Zrotation Yrotation Xrotation
					JOINT Neck1
					{
						OFFSET -0.054170 1.746240 0.172020
						CHANNELS 3 Zrotation Yrotation Xrotation
						JOINT Head
						{
							OFFSET 0.104070 1.761360 -0.123970
							CHANNELS 3 Zrotation Yrotation Xrotation
							End Site
							{
								OFFSET 0.000000 0.000000 0.000000
							}
						}
					}
				}
				JOINT LeftShoulder
				{
					OFFSET 0.000000 0.000000 0.000000
					CHANNELS 3 Zrotation Yrotation Xrotation
					JOINT LeftArm
					{
						OFFSET 3.362410 1.200890 -0.311210
						CHANNELS 3 Zrotation Yrotation Xrotation
						JOINT LeftForeArm
						{
							OFFSET 4.983000 -0.000000 -0.000000
							CHANNELS 3 Zrotation Yrotation Xrotation
							JOINT LeftHand
							{
								OFFSET 3.483560 -0.000000 -0.000000
								CHANNELS 3 Zrotation Yrotation Xrotation
								JOINT LeftFingerBase
								{
									OFFSET 0.000000 0.000000 0.000000
									CHANNELS 3 Zrotation Yrotation Xrotation
									JOINT LeftHandIndex1
									{
										OFFSET 0.715260 -0.000000 -0.000000
										CHANNELS 3 Zrotation Yrotation Xrotation
										End Site
										{
											OFFSET 0.000000 0.000000 0.000000
										}
									}
								}
								JOINT LThumb
								{
									OFFSET 0.000000 0.000000 0.000000
									CHANNELS 3 Zrotation Yrotation Xrotation
									End Site
									{
										OFFSET 0.000000 0.000000 0.000000
									}
								}
							}
						}
					}
				}
				JOINT RightShoulder
				{
					OFFSET 0.000000 0.000000 0.000000
					CHANNELS 3 Zrotation Yrotation Xrotation
					JOINT RightArm
					{
						OFFSET -3.136600 1.374050 -0.404650
						CHANNELS 3 Zrotation Yrotation Xrotation
						JOINT RightForeArm
						{
							OFFSET -5.241900 -0.000000 -0.000000
							CHANNELS 3 Zrotation Yrotation Xrotation
							JOINT RightHand
							{
								OFFSET -3.444170 -0.000000 -0.000000
								CHANNELS 3 Zrotation Yrotation Xrotation
								JOINT RightFingerBase
								{
									OFFSET 0.000000 0.000000 0.000000
									CHANNELS 3 Zrotation Yrotation Xrotation
									JOINT RightHandIndex1
									{
										OFFSET -0.622530 -0.000000 -0.000000
										CHANNELS 3 Zrotation Yrotation Xrotation
										End Site
										{
											OFFSET 0.000000 0.000000 0.000000
										}
									}
								}
								JOINT RThumb
								{
									OFFSET 0.000000 0.000000 0.000000
									CHANNELS 3 Zrotation Yrotation Xrotation
									End Site
									{
										OFFSET 0.000000 0.000000 0.000000
									}
								}
							}
						}
					}
				}
			}
		}
	}
}
MOTION
Frames: 11
Frame Time: 0.008333
-1.014255 17.518957 -47.314174 0.140406 -3.435511 21.390648 -0.201418 -2.780464 -3.778141 -15.713333 -4.222521 -47.502474 7.641493 17.707865 54.111334 -0.578792 5.215439 -5.206638 0.108400 -2.122500 -5.844300 -0.699820 1.406592 -2.240891 21.641709 2.889316 -25.749434 -2.004088 -11.417067 31.546688 -2.394018 15.703473 -16.605263 -0.050500 1.450100 -3.988100 2.521557 1.376084 -9.495956 1.159866 0.966243 -9.887737 -0.795090 0.729749 1.468316 -0.056217 -0.655608 -7.037557 -0.140559 -0.686054 10.188447 -1.775100 -0.197600 2.771900 13.506899 8.187061 0.634939 -101.200884 11.178337 16.070518 7.479143 -19.802465 -0.852678 -0.767728 -1.036815 17.977048 16.614676 -19.815809 -5.551200 -7.125000 0.000000 0.000000 -7.232300 10.821400 5.793400 -13.190353 -7.356380 0.244808 99.417041 1.343655 29.820500 -23.654202 41.937007 -7.823689 -0.228814 -2.315110 -12.384341 -18.862153 -38.502689 10.994900 7.125000 0.000000 0.000000 21.015800 -66.603100 -11.150100
-1.014695 17.523228 -47.173596 0.368030 -2.931461 20.872296 -0.271387 -2.784982 -3.810045 -15.693398 -4.695880 -46.926503 7.117571 17.388107 52.456339 -0.582895 5.291314 -5.441898 0.047162 -1.127477 -3.102941 -0.640836 1.401095 -2.205176 21.611743 2.013927 -24.705998 -1.969013 -11.304573 31.295867 -2.459440 15.530597 -17.007224 -0.057108 1.540364 -4.237003 2.155377 1.178803 -9.372402 1.192490 0.787626 -9.634124 -0.581231 0.643110 1.994211 0.033855 -0.769387 -7.537659 -0.230505 -0.813831 10.226911 -1.849494 -0.265268 2.880983 13.556487 8.238102 0.667806 -101.322948 10.956260 15.638991 7.244398 -19.419860 -0.796147 -0.777639 -1.034795 18.849639 16.564586 -19.558489 -5.455568 -7.125000 0.000000 0.000000 -7.260264 11.098031 5.774580 -13.187108 -7.378037 0.213969 99.210711 2.109686 30.276429 -24.364238 42.631238 -8.224396 -0.209909 -2.297445 -12.763836 -19.216296 -38.494805 11.226636 7.125000 0.000000 0.000000 20.600174 -66.716195 -10.973997
-1.012530 17.525067 -47.034933 0.522581 -2.580655 20.449540 -0.334894 -2.794545 -3.835060 -15.642054 -5.082995 -46.477742 6.588392 17.046309 50.756043 -0.609427 5.494703 -5.593936 0.004402 -0.426346 -1.171368 -0.582896 1.388652 -2.154496 21.594597 1.210596 -23.781209 -1.933968 -11.186505 31.021008 -2.515023 15.562530 -17.285131 -0.056806 1.530270 -4.209321 1.970625 1.039752 -9.008513 1.194514 0.665384 -9.559740 -0.519771 0.579880 2.004943 0.067565 -0.830955 -7.732242 -0.264229 -0.885822 10.315746 -1.876623 -0.301325 2.964698 13.564471 8.249078 0.684476 -101.324948 11.179589 15.247394 7.075044 -19.101660 -0.750095 -0.788459 -1.032275 19.521412 16.508238 -19.418756 -5.393652 -7.125000 0.000000 0.000000 -7.293536 11.253309 5.778268 -13.164826 -7.369368 0.188461 98.997083 2.454052 30.783725 -25.138026 43.351398 -8.661364 -0.192647 -2.262138 -13.024411 -19.647638 -38.191390 11.433237 7.125000 0.000000 0.000000 19.781267 -66.590145 -10.479245
-1.004427 17.521361 -46.900636 0.510598 -2.579101 20.244653 -0.383672 -2.815603 -3.844377 -15.519125 -5.273551 -46.318900 6.047230 16.654279 48.952506 -0.687076 5.988707 -5.556307 0.003753 -0.395020 -1.085352 -0.527336 1.360376 -2.069707 21.606669 0.571491 -23.126826 -1.898992 -11.055731 30.691364 -2.548182 16.061236 -17.280310 -0.040759 1.291455 -3.551282 2.199362 1.033413 -8.096883 1.126797 0.671626 -9.893830 -0.805637 0.570005 0.841585 -0.027178 -0.773528 -7.230527 -0.169821 -0.830671 10.519385 -1.796035 -0.265338 2.990597 13.477639 8.168742 0.664231 -101.053312 12.418029 14.946801 7.054720 -18.930244 -0.727927 -0.801353 -1.028615 19.735509 16.437629 -19.547009 -5.408578 -7.125000 0.000000 0.000000 -7.338903 11.132014 5.833252 -13.099155 -7.291582 0.175104 98.766824 1.837414 31.408088 -26.057105 44.130649 -9.180974 -0.179133 -2.186626 -13.013960 -20.254920 -37.214437 11.582555 7.125000 0.000000 0.000000 18.043250 -65.919068 -9.258268
-1.000576 17.518651 -46.770248 0.541506 -2.551250 20.137322 -0.429083 -2.837170 -3.865974 -15.416211 -5.447882 -46.225139 5.503260 16.234330 47.098494 -0.748585 6.350180 -5.384620 0.012172 -0.631156 -1.734762 -0.476489 1.344840 -2.002728 21.607621 -0.097272 -22.572526 -1.856797 -10.914290 30.324823 -2.572722 16.527219 -17.231624 -0.029282 1.095964 -3.012923 2.232463 1.037485 -7.461273 1.064294 0.706872 -10.104736 -0.962841 0.577996 0.097504 -0.006219 -0.754576 -7.098898 -0.109971 -0.820192 10.642715 -1.766399 -0.254395 3.048882 13.422004 8.121878 0.648147 -100.836519 13.201498 14.699177 6.979180 -18.692150 -0.689922 -0.820831 -1.028798 20.029614 16.358546 -19.820675 -5.460315 -7.125000 0.000000 0.000000 -7.393267 10.870204 5.917347 -13.053459 -7.236065 0.154065 98.599584 1.605117 31.897571 -26.909534 44.838332 -9.656712 -0.131446 -2.161547 -13.167943 -19.919638 -37.331222 11.435551 7.125000 0.000000 0.000000 18.507337 -65.950420 -9.517678
-0.999445 17.516578 -46.642358 0.599845 -2.506582 20.092380 -0.472341 -2.859063 -3.895425 -15.326098 -5.611836 -46.172999 4.957495 15.796524 45.212202 -0.799771 6.626893 -5.127197 0.026390 -1.038346 -2.854503 -0.428658 1.337451 -1.947139 21.601462 -0.785004 -22.082233 -1.809984 -10.766027 29.934683 -2.591750 16.972274 -17.154885 -0.020728 0.928179 -2.551104 2.140448 1.048213 -7.002187 1.005126 0.760668 -10.236861 -1.037761 0.597413 -0.378435 0.088736 -0.760228 -7.203950 -0.072224 -0.838283 10.714686 -1.769349 -0.259468 3.127877 13.386322 8.096420 0.634725 -100.654800 13.693996 14.485429 6.868327 -18.411413 -0.641788 -0.844521 -1.031438 20.374887 16.274043 -20.187337 -5.535593 -7.125000 0.000000 0.000000 -7.453384 10.518530 6.020059 -13.020538 -7.194791 0.128114 98.472646 1.618619 32.300792 -27.719338 45.500245 -10.104392 -0.061906 -2.168722 -13.427089 -18.981554 -38.147491 11.099039 7.125000 0.000000 0.000000 20.379746 -66.431000 -10.723847
-0.998832 17.514275 -46.515043 0.633953 -2.703452 20.098869 -0.517126 -2.895895 -3.950910 -15.215149 -5.617145 -46.129715 4.421008 15.316805 43.277744 -0.847495 6.877141 -4.851211 0.057178 -1.493195 -4.107939 -0.394688 1.333793 -1.918470 21.564859 -1.350652 -21.642687 -1.765691 -10.628113 29.558566 -2.613559 17.432047 -17.117796 -0.020054 0.915249 -2.515578 2.028164 1.051221 -7.332422 0.997737 0.761504 -10.091301 -0.962440 0.603859 0.060271 0.057966 -0.734609 -7.160725 -0.086856 -0.804046 10.524482 -1.766739 -0.246946 3.015423 13.408882 8.121672 0.671586 -100.828754 13.712117 13.598283 6.706572 -18.146582 -0.601096 -0.867696 -1.027384 21.118576 16.156065 -20.206555 -5.499468 -7.125000 0.000000 0.000000 -7.526131 10.522226 6.079213 -13.021833 -7.231438 0.102154 98.255313 2.158050 33.082587 -28.451121 46.125539 -10.531120 0.001038 -2.166194 -14.233515 -18.408286 -38.280628 10.791134 7.125000 0.000000 0.000000 21.143295 -66.387267 -11.115697
-0.998322 17.510584 -46.388320 0.642289 -2.942314 20.101171 -0.563123 -2.932491 -4.005755 -15.070501 -5.594593 -46.076296 3.890914 14.825240 41.336276 -0.891171 7.104572 -4.605725 0.082971 -1.857791 -5.112881 -0.362114 1.330418 -1.889788 21.542522 -1.901908 -21.199152 -1.719910 -10.485551 29.169520 -2.633117 17.907263 -17.072315 -0.020749 0.930201 -2.556765 1.906636 1.073108 -7.610236 0.997217 0.788917 -9.956313 -0.853617 0.627055 0.457351 0.040884 -0.730833 -7.158033 -0.133590 -0.794139 10.369626 -1.782900 -0.246834 2.929533 13.430541 8.148947 0.707757 -101.021822 13.735661 12.698752 6.548830 -17.888534 -0.563565 -0.887588 -1.022705 21.912925 16.066948 -20.152048 -5.451721 -7.125000 0.000000 0.000000 -7.579883 10.596816 6.111836 -13.019321 -7.261589 0.074424 98.010797 2.685818 33.821247 -29.185181 46.741397 -10.964816 0.060000 -2.157036 -15.065808 -17.929397 -38.252679 10.501234 7.125000 0.000000 0.000000 21.630405 -66.228663 -11.304541
-0.998008 17.502041 -46.263508 0.567172 -3.250451 20.071640 -0.612919 -2.963317 -4.049737 -14.813159 -5.525541 -45.983993 3.380441 14.305478 39.385825 -0.921629 7.259779 -4.474597 0.085567 -1.886404 -5.191935 -0.329921 1.326813 -1.852180 21.580855 -2.442392 -20.724712 -1.668020 -10.323081 28.729975 -2.643762 18.432417 -16.983968 -0.023698 0.992972 -2.729446 1.758998 1.164535 -7.441499 1.003975 0.928117 -9.950498 -0.675512 0.713973 0.404817 0.113873 -0.814881 -7.348115 -0.276946 -0.887836 10.426741 -1.867500 -0.296568 3.001095 13.429784 8.166658 0.724888 -101.165315 13.935036 11.977556 6.422133 -17.649302 -0.534795 -0.895996 -1.018016 22.755526 16.091288 -19.950621 -5.399510 -7.125000 0.000000 0.000000 -7.562066 10.805662 6.064699 -12.992002 -7.242968 0.040412 97.699659 2.998601 34.281891 -29.953070 47.335858 -11.430153 0.107013 -2.127552 -15.809244 -17.664985 -37.878628 10.265782 7.125000 0.000000 0.000000 21.502621 -65.835515 -11.041833
-0.996474 17.493136 -46.136487 0.480332 -3.542933 20.030375 -0.661013 -2.999221 -4.100211 -14.521651 -5.486951 -45.844126 2.884693 13.765976 37.426156 -0.951032 7.407806 -4.327962 0.077016 -1.781321 -4.901949 -0.295674 1.318096 -1.814374 21.613519 -3.006499 -20.220566 -1.616943 -10.156751 28.278249 -2.643271 19.013344 -16.837969 -0.024759 1.015895 -2.792551 1.709275 1.271312 -7.394386 0.981330 1.068804 -9.889694 -0.624057 0.789988 0.511582 0.213148 -0.861412 -7.489204 -0.369914 -0.943496 10.355371 -1.931634 -0.327352 2.998131 13.434124 8.183586 0.743282 -101.238020 14.051251 11.347501 6.311900 -17.445694 -0.510900 -0.904805 -1.012477 23.530271 16.096744 -19.765628 -5.346431 -7.125000 0.000000 0.000000 -7.555984 10.998437 6.029636 -12.980242 -7.243960 0.014299 97.490628 3.405202 34.721027 -30.698116 47.916948 -11.891740 0.138842 -2.099786 -16.389744 -17.709229 -37.440053 10.199136 7.125000 0.000000 0.000000 20.975731 -65.467292 -10.587499
-0.993836 17.483903 -46.007467 0.382878 -3.821240 19.978487 -0.707567 -3.039724 -4.156561 -14.199209 -5.475940 -45.661193 2.402278 13.208600 35.458139 -0.979481 7.549335 -4.167287 0.058373 -1.555190 -4.277833 -0.259566 1.304751 -1.776389 21.641049 -3.591995 -19.689525 -1.566603 -9.986926 27.815494 -2.632696 19.644767 -16.639772 -0.024110 1.002739 -2.756446 1.748203 1.391988 -7.457392 0.932063 1.210840 -9.779104 -0.687274 0.856131 0.762576 0.336223 -0.873975 -7.585935 -0.417261 -0.964717 10.167671 -1.977238 -0.340980 2.927690 13.443080 8.199804 0.762819 -101.246631 14.092172 10.799966 6.216575 -17.274342 -0.491418 -0.913979 -1.006169 24.243580 16.085102 -19.595514 -5.292568 -7.125000 0.000000 0.000000 -7.560527 11.176664 6.005507 -12.982569 -7.262708 -0.004662 97.374047 3.896746 35.140690 -31.422480 48.485933 -12.349933 0.156922 -2.073574 -16.822721 -18.032931 -36.943056 10.285329 7.125000 0.000000 0.000000 20.087490 -65.121635 -9.959665
